<svg width="40" height="38" viewBox="0 0 40 38" fill="none" xmlns="http://www.w3.org/2000/svg">
<ellipse cx="20" cy="19.4815" rx="20" ry="18.5185" fill="#FF81A7"/>
<g clip-path="url(#clip0_1_12)">
<path d="M33 8H9V32H33V8Z" fill="white" fill-opacity="0.01"/>
<path d="M19.5 27C24.1944 27 28 23.1944 28 18.5C28 13.8056 24.1944 10 19.5 10C14.8056 10 11 13.8056 11 18.5C11 23.1944 14.8056 27 19.5 27Z" stroke="white" stroke-width="2" stroke-linejoin="round"/>
<path d="M20.7474 13.576C20.0674 12.7056 18.2813 12.9648 16.758 14.1548C15.2348 15.3449 14.5513 17.0152 15.2313 17.8857" stroke="white" stroke-linecap="round" stroke-linejoin="round"/>
<path d="M25.6109 24.6109L29.8535 28.8535" stroke="white" stroke-width="2" stroke-linecap="round" stroke-linejoin="round"/>
</g>
<defs>
<clipPath id="clip0_1_12">
<rect width="24" height="24" fill="white" transform="translate(9 8)"/>
</clipPath>
</defs>
</svg>
